<?xml version="1.0" encoding="UTF-8" standalone="no"?>
<!DOCTYPE svg PUBLIC "-//W3C//DTD SVG 1.1//EN" "http://www.w3.org/Graphics/SVG/1.1/DTD/svg11.dtd">
<svg width="1600px" height="900px" version="1.1" xmlns="http://www.w3.org/2000/svg" xmlns:xlink="http://www.w3.org/1999/xlink" xml:space="preserve" xmlns:serif="http://www.serif.com/" style="fill-rule:evenodd;clip-rule:evenodd;stroke-linecap:round;stroke-linejoin:round;stroke-miterlimit:1.5;">
    <rect id="Artboard1" x="0" y="0" width="1600" height="900" style="fill:url(#_Linear1);"/>
    <g id="Artboard11" serif:id="Artboard1">
        <g transform="matrix(1,0,0,1,29.8339,-30.5987)">
            <g transform="matrix(4.81146,0,0,4.81146,1833.25,-320.285)">
                <g opacity="0.1">
                    <path d="M-273.308,175.757L-273.308,190.025L-298.254,220.202L-278.431,204.401L-268.093,185.682L-273.308,175.757Z" style="fill:#fff;"/>
                </g>
            </g>
            <g transform="matrix(4.81146,0,0,4.81146,1833.25,-320.285)">
                <g opacity="0.1">
                    <path d="M-198.835,145.101L-217.932,112.704L-217.621,140.452L-210.58,133.63L-198.835,145.101" style="fill:#fff;"/>
                </g>
            </g>
            <g transform="matrix(4.81146,0,0,4.81146,1833.25,-320.285)">
                <g opacity="0.1">
                    <path d="M-177.998,207.692C-179.448,208.658 -202.143,166.608 -201.879,158.51L-172.419,197.98L-177.998,207.692Z" style="fill:#fff;"/>
                </g>
            </g>
            <g transform="matrix(4.81146,0,0,4.81146,1833.24,-320.285)">
                <g opacity="0.05">
                    <path d="M-155.389,210.677L-161.751,189.634C-173.891,178.572 -187.39,168.266 -201.879,158.51L-172.419,197.98L-171.196,195.653L-155.389,210.677Z" style="fill:#fff;"/>
                </g>
            </g>
            <g transform="matrix(4.81146,0,0,4.81146,1833.25,-320.285)">
                <g opacity="0.1">
                    <path d="M-161.8,175.757L-161.751,189.634L-143.644,207.692L-161.8,175.757Z" style="fill:#fff;"/>
                </g>
            </g>
            <path d="M398.216,739.209L518.245,525.364L518.245,594.015L398.216,739.209Z" style="fill:#fff;fill-opacity:0.15;stroke:#000;stroke-opacity:0.15;stroke-width:1px;"/>
            <path d="M549.223,632.286L784.682,221.988L786.18,355.495L833.558,421.439L840.695,498.981L781.96,415.363L757.899,443.026L730.821,399.172L549.223,632.286Z" style="fill:#fff;fill-opacity:0.15;stroke:#000;stroke-opacity:0.15;stroke-width:1px;"/>
        </g>
    </g>
    <defs>
        <linearGradient id="_Linear1" x1="0" y1="0" x2="1" y2="0" gradientUnits="userSpaceOnUse" gradientTransform="matrix(410.564,499.361,-499.361,410.564,426.998,188.719)"><stop offset="0" style="stop-color:#000;stop-opacity:1"/><stop offset="1" style="stop-color:#000;stop-opacity:1"/></linearGradient>
    </defs>
</svg>